<svg xmlns="http://www.w3.org/2000/svg" xmlns:xlink="http://www.w3.org/1999/xlink" width="1024" zoomAndPan="magnify" viewBox="0 0 768 576" height="768" preserveAspectRatio="xMidYMid meet" version="1.0"><path fill="#ffffff" d="M 630.789062 282.988281 L 596.757812 226.269531 L 604.675781 226.269531 C 615.070312 226.269531 623.578125 217.761719 623.578125 207.367188 C 623.578125 196.96875 615.070312 188.460938 604.675781 188.460938 L 579.46875 188.460938 C 579.246094 188.460938 579.042969 188.519531 578.820312 188.527344 L 557.648438 114.988281 C 553.019531 98.890625 538.082031 87.640625 521.320312 87.640625 L 246.945312 87.640625 C 230.183594 87.640625 215.242188 98.890625 210.613281 114.984375 L 189.433594 188.527344 C 189.214844 188.519531 189.011719 188.460938 188.792969 188.460938 L 163.589844 188.460938 C 153.191406 188.460938 144.683594 196.96875 144.683594 207.367188 C 144.683594 217.761719 153.191406 226.269531 163.589844 226.269531 L 171.503906 226.269531 L 137.472656 282.992188 C 135.707031 285.929688 134.367188 289.050781 133.453125 292.351562 C 132.539062 295.652344 132.082031 299.019531 132.082031 302.445312 L 132.082031 389.554688 C 132.082031 410.402344 149.042969 427.363281 169.890625 427.363281 L 182.492188 427.363281 L 182.492188 464.246094 C 182.492188 477 192.832031 487.34375 205.589844 487.34375 L 222.40625 487.34375 C 235.164062 487.34375 245.503906 477 245.503906 464.246094 L 245.503906 427.363281 L 522.757812 427.363281 L 522.757812 461.78125 C 522.757812 474.242188 532.863281 484.347656 545.324219 484.347656 L 563.203125 484.347656 C 575.667969 484.347656 585.769531 474.242188 585.769531 461.78125 L 585.769531 427.363281 L 598.371094 427.363281 C 619.222656 427.363281 636.179688 410.402344 636.179688 389.554688 L 636.179688 302.445312 C 636.179688 299.015625 635.722656 295.652344 634.808594 292.347656 C 633.894531 289.046875 632.554688 285.925781 630.789062 282.988281 Z M 610.976562 389.554688 C 610.976562 396.5 605.328125 402.15625 598.371094 402.15625 L 169.890625 402.15625 C 162.9375 402.15625 157.289062 396.5 157.289062 389.554688 L 157.289062 302.445312 C 157.289062 300.117188 157.890625 297.957031 159.085938 295.957031 L 205.863281 217.980469 C 207.523438 215.210938 208.828125 212.214844 209.765625 209.019531 L 234.835938 121.953125 C 236.371094 116.589844 241.359375 112.847656 246.945312 112.847656 L 521.320312 112.847656 C 526.90625 112.847656 531.890625 116.589844 533.429688 121.960938 L 558.5 209.019531 L 558.511719 209.078125 C 559.433594 212.21875 560.730469 215.199219 562.410156 218.011719 L 609.179688 295.953125 C 610.371094 297.953125 610.972656 300.117188 610.976562 302.445312 Z M 610.976562 389.554688 " fill-opacity="1" fill-rule="nonzero"/><path fill="#ffffff" d="M 540.332031 213.703125 L 524.796875 150.210938 C 522.039062 138.929688 511.929688 130.996094 500.316406 130.996094 L 267.285156 130.996094 C 255.609375 130.996094 245.460938 139.015625 242.765625 150.375 L 227.675781 213.867188 C 223.910156 229.703125 235.921875 244.898438 252.195312 244.898438 L 515.847656 244.898438 C 532.195312 244.898438 544.214844 229.582031 540.332031 213.703125 Z M 221.609375 294.679688 L 183.800781 290.734375 C 176.363281 289.957031 169.890625 295.789062 169.890625 303.265625 L 169.890625 314.488281 C 169.890625 321.445312 175.53125 327.089844 182.492188 327.089844 L 220.300781 327.089844 C 227.261719 327.089844 232.902344 321.445312 232.902344 314.488281 L 232.902344 307.210938 C 232.902344 300.757812 228.027344 295.347656 221.609375 294.679688 Z M 584.464844 289.351562 L 546.65625 293.296875 C 540.238281 293.964844 535.363281 299.378906 535.363281 305.832031 L 535.363281 313.105469 C 535.363281 320.066406 541.003906 325.707031 547.964844 325.707031 L 585.769531 325.707031 C 592.730469 325.707031 598.375 320.066406 598.375 313.105469 L 598.375 301.886719 C 598.375 294.40625 591.898438 288.574219 584.464844 289.351562 Z M 494.015625 289.28125 L 274.246094 289.28125 C 266.050781 289.28125 260.035156 296.988281 262.019531 304.941406 L 268.324219 330.144531 C 268.492188 330.820312 268.714844 331.480469 268.996094 332.121094 C 269.273438 332.761719 269.601562 333.371094 269.984375 333.957031 C 270.363281 334.542969 270.789062 335.09375 271.261719 335.605469 C 271.734375 336.121094 272.242188 336.59375 272.792969 337.023438 C 273.34375 337.453125 273.925781 337.832031 274.539062 338.164062 C 275.152344 338.5 275.789062 338.777344 276.449219 339.003906 C 277.109375 339.234375 277.78125 339.402344 278.46875 339.519531 C 279.160156 339.632812 279.851562 339.691406 280.550781 339.691406 L 487.714844 339.691406 C 488.414062 339.691406 489.105469 339.632812 489.792969 339.519531 C 490.480469 339.402344 491.15625 339.234375 491.816406 339.003906 C 492.476562 338.777344 493.113281 338.5 493.726562 338.164062 C 494.339844 337.832031 494.921875 337.453125 495.46875 337.023438 C 496.019531 336.59375 496.53125 336.121094 497.003906 335.605469 C 497.472656 335.09375 497.902344 334.542969 498.28125 333.957031 C 498.660156 333.371094 498.992188 332.761719 499.269531 332.121094 C 499.546875 331.480469 499.773438 330.820312 499.941406 330.144531 L 506.242188 304.941406 C 508.230469 296.988281 502.214844 289.28125 494.015625 289.28125 Z M 472.347656 352.292969 L 295.914062 352.292969 C 288.953125 352.292969 283.3125 357.9375 283.3125 364.898438 C 283.3125 371.855469 288.953125 377.5 295.914062 377.5 L 472.347656 377.5 C 479.308594 377.5 484.953125 371.855469 484.953125 364.898438 C 484.949219 357.9375 479.308594 352.292969 472.347656 352.292969 Z M 472.347656 352.292969 " fill-opacity="1" fill-rule="nonzero"/></svg>